HIERARCHY
ROOT Hips
{
    OFFSET 0.000000 0.000000 0.000000
    CHANNELS 6 Xposition Yposition Zposition Zrotation Xrotation Yrotation
    JOINT Chest
    {
        OFFSET -0.000000 0.078597 0.000000
        CHANNELS 3 Zrotation Xrotation Yrotation
        JOINT Chest2
        {
            OFFSET -0.000000 0.230468 0.000000
            CHANNELS 3 Zrotation Xrotation Yrotation
            JOINT Neck
            {
                OFFSET -0.000000 0.249638 0.000000
                CHANNELS 3 Zrotation Xrotation Yrotation
                JOINT Head
                {
                    OFFSET -0.000000 0.103998 0.019170
                    CHANNELS 3 Zrotation Xrotation Yrotation
                    End Site
                    {
                        OFFSET -0.000000 0.191701 0.000000
                    }
                }
            }
            JOINT LeftCollar
            {
                OFFSET 0.038274 0.205938 -0.001496
                CHANNELS 3 Zrotation Xrotation Yrotation
                JOINT LeftShoulder
                {
                    OFFSET 0.132388 0.000000 0.000000
                    CHANNELS 3 Zrotation Xrotation Yrotation
                    JOINT LeftElbow
                    {
                        OFFSET 0.250301 0.000000 0.000000
                        CHANNELS 3 Zrotation Xrotation Yrotation
                        JOINT LeftWrist
                        {
                            OFFSET 0.285291 0.000000 0.000000
                            CHANNELS 3 Zrotation Xrotation Yrotation
                            End Site
                            {
                                OFFSET 0.000000 -0.143776 0.000000
                            }
                        }
                    }
                }
            }
            JOINT RightCollar
            {
                OFFSET -0.038406 0.205938 -0.001496
                CHANNELS 3 Zrotation Xrotation Yrotation
                JOINT RightShoulder
                {
                    OFFSET -0.132388 0.000000 0.000000
                    CHANNELS 3 Zrotation Xrotation Yrotation
                    JOINT RightElbow
                    {
                        OFFSET -0.250301 0.000000 0.000000
                        CHANNELS 3 Zrotation Xrotation Yrotation
                        JOINT RightWrist
                        {
                            OFFSET -0.285291 0.000000 0.000000
                            CHANNELS 3 Zrotation Xrotation Yrotation
                            End Site
                            {
                                OFFSET -0.000000 -0.143776 0.000000
                            }
                        }
                    }
                }
            }
        }
    }
    JOINT LeftHip
    {
        OFFSET 0.095851 0.000000 0.000000
        CHANNELS 3 Zrotation Xrotation Yrotation
        JOINT LeftKnee
        {
            OFFSET -0.000000 -0.406444 0.000000
            CHANNELS 3 Zrotation Xrotation Yrotation
            JOINT LeftAnkle
            {
                OFFSET -0.000000 -0.408443 0.000000
                CHANNELS 3 Zrotation Xrotation Yrotation
                JOINT LeftToe
                {
                    OFFSET -0.000000 -0.062303 0.143776
                    CHANNELS 3 Zrotation Xrotation Yrotation
                    End Site
                    {
                        OFFSET -0.000000 0.000000 0.038340
                    }
                }
            }
        }
    }
    JOINT RightHip
    {
        OFFSET -0.095851 0.000000 0.000000
        CHANNELS 3 Zrotation Xrotation Yrotation
        JOINT RightKnee
        {
            OFFSET -0.000000 -0.406444 0.000000
            CHANNELS 3 Zrotation Xrotation Yrotation
            JOINT RightAnkle
            {
                OFFSET -0.000000 -0.408443 0.000000
                CHANNELS 3 Zrotation Xrotation Yrotation
                JOINT RightToe
                {
                    OFFSET -0.000000 -0.062303 0.143776
                    CHANNELS 3 Zrotation Xrotation Yrotation
                    End Site
                    {
                        OFFSET -0.000000 0.000000 0.038340
                    }
                }
            }
        }
    }
}
MOTION
Frames:    5
Frame Time:    0.016667
-0.009789    0.887277    0.171640    -0.137001    2.102675    -176.000671    -0.386953    -2.579753    0.523404    -2.440527    1.094296    0.201503    0.967373    7.217837    -3.191856    0.918833    1.540795    -3.237953    13.015615    -3.296319    -2.715723    -10.172207    -2.098930    -10.007622    0.111362    -10.188361    0.999980    91.746796    1.791577    10.162003    -11.807559    -1.239073    2.839332    12.652538    -7.675974    2.341706    -2.818545    -8.777783    -2.770147    -83.833496    2.735590    -8.992529    5.177332    8.770814    0.983314    -0.998139    -5.478499    -1.236821    -3.445369    -4.885235    11.524137    0.000000    0.000000    0.000000    -4.382926    11.001122    2.916562    0.281001    -10.710629    -0.105955    2.660429    -2.137388    -16.820183    0.000000    0.000000    0.000000    
-0.009734    0.887281    0.171579    -0.132925    2.091198    -175.990906    -0.388993    -2.579715    0.515632    -2.435731    1.081352    0.198565    1.001737    7.213769    -3.225767    0.877908    1.557678    -3.260593    13.016632    -3.291608    -2.703959    -10.132849    -2.128390    -9.986502    0.043267    -10.180684    0.992125    91.786423    1.738468    10.153959    -11.825382    -1.235594    2.811157    12.736359    -7.659830    2.361389    -2.980837    -8.715579    -2.840273    -83.376183    2.657029    -8.942423    5.189476    8.765768    0.987666    -1.003227    -5.485766    -1.280759    -3.297897    -4.780324    11.483331    0.000000    0.000000    0.000000    -4.369997    11.000682    2.912118    0.270494    -10.721295    -0.066147    2.709635    -2.165808    -16.842274    0.000000    0.000000    0.000000    
-0.009698    0.887212    0.171532    -0.148239    2.056862    -175.972229    -0.418883    -2.608906    0.497247    -2.420777    1.071218    0.192551    1.028732    7.246756    -3.233152    0.851413    1.505588    -3.258457    13.041858    -3.205687    -2.622564    -10.192614    -2.279188    -10.080018    0.081698    -10.166127    0.998764    91.910728    1.877681    10.135509    -11.832663    -1.209526    2.810757    12.727538    -7.683167    2.343120    -2.948344    -8.768627    -2.824753    -83.654160    2.716055    -8.991076    5.172734    8.732070    0.987330    -0.996446    -5.479660    -1.279730    -3.324695    -4.784717    11.471045    0.000000    0.000000    0.000000    -4.379467    10.986431    2.885653    0.264596    -10.739173    -0.078334    2.666588    -2.165297    -16.814253    0.000000    0.000000    0.000000    
-0.009608    0.887140    0.171548    -0.134794    2.054020    -175.957809    -0.414002    -2.624226    0.510795    -2.400342    1.103260    0.197515    1.028046    7.276049    -3.259724    0.827780    1.433318    -3.281929    13.000331    -3.238867    -2.692961    -10.157695    -2.319263    -10.016428    0.057199    -10.171448    0.986646    91.963387    1.909592    10.139212    -11.836411    -1.215819    2.782046    12.729694    -7.662210    2.324850    -2.966302    -8.742995    -2.832062    -83.632599    2.725894    -8.967148    5.198790    8.719845    0.987863    -1.008440    -5.471635    -1.281858    -3.470150    -4.908032    11.510439    0.000000    0.000000    0.000000    -4.352087    10.984472    2.866151    0.259845    -10.737091    -0.106747    2.622128    -2.156703    -16.789410    0.000000    0.000000    0.000000    
-0.009564    0.887152    0.171473    -0.130953    2.051036    -175.968353    -0.426063    -2.626764    0.516403    -2.362760    1.108691    0.199097    0.994589    7.245528    -3.260026    0.838336    1.467049    -3.290856    12.974678    -3.233727    -2.680956    -10.165525    -2.303843    -10.041948    0.092363    -10.197950    1.039034    92.072449    1.970927    10.163123    -11.851382    -1.229250    2.771271    12.733808    -7.629316    2.335121    -2.961200    -8.711319    -2.850492    -83.687088    2.701037    -8.933140    5.202047    8.719460    0.987409    -1.000193    -5.465866    -1.278642    -3.457829    -4.921916    11.507648    0.000000    0.000000    0.000000    -4.352611    10.977378    2.862699    0.270243    -10.726268    -0.059769    2.669367    -2.199656    -16.811346    0.000000    0.000000    0.000000    
